<?xml version="1.0" encoding="UTF-8"?><svg id="Livello_2" xmlns="http://www.w3.org/2000/svg" xmlns:xlink="http://www.w3.org/1999/xlink" viewBox="0 0 1298 653"><defs><style>.cls-1{fill:url(#Sfumatura_senza_nome_46);}.cls-1,.cls-2,.cls-3,.cls-4,.cls-5,.cls-6,.cls-7,.cls-8,.cls-9,.cls-10,.cls-11{stroke-width:0px;}.cls-2{fill:url(#Sfumatura_senza_nome_47);}.cls-3{fill:url(#Sfumatura_senza_nome_46-3);}.cls-4{fill:url(#Sfumatura_senza_nome_46-2);}.cls-5{fill:url(#Sfumatura_senza_nome_47-2);}.cls-6{fill:url(#Sfumatura_senza_nome_2);}.cls-7{fill:#26c2a9;}.cls-8{fill:#3beee2;}.cls-9{fill:#33e2d2;}.cls-10{fill:#fff;}.cls-11{fill:#00165d;}</style><linearGradient id="Sfumatura_senza_nome_46" x1="964.3" y1="123.95" x2="840.66" y2="448.41" gradientUnits="userSpaceOnUse"><stop offset="0" stop-color="#0029ae"/><stop offset=".2" stop-color="#0028a9"/><stop offset=".41" stop-color="#00259d"/><stop offset=".62" stop-color="#002189"/><stop offset=".83" stop-color="#001c6c"/><stop offset="1" stop-color="#011750"/></linearGradient><linearGradient id="Sfumatura_senza_nome_46-2" x1="1010.18" y1="76.98" x2="1006.81" y2="85.83" xlink:href="#Sfumatura_senza_nome_46"/><radialGradient id="Sfumatura_senza_nome_47" cx="833.41" cy="253.86" fx="728.41" fy="253.86" r="193.8" gradientUnits="userSpaceOnUse"><stop offset="0" stop-color="#0029ae"/><stop offset="1" stop-color="#011750"/></radialGradient><radialGradient id="Sfumatura_senza_nome_2" cx="1010.68" cy="78.73" fx="1021.98" fy="78.73" r="22.23" gradientUnits="userSpaceOnUse"><stop offset="0" stop-color="#0029ae"/><stop offset="1" stop-color="#011750"/></radialGradient><linearGradient id="Sfumatura_senza_nome_46-3" x1="916.22" y1="402.01" x2="1193.27" y2="402.01" xlink:href="#Sfumatura_senza_nome_46"/><radialGradient id="Sfumatura_senza_nome_47-2" cx="1057.34" cy="448.6" fx="1095.78" fy="528.22" r="197.15" xlink:href="#Sfumatura_senza_nome_47"/></defs><g id="DEFINITIVO"><path class="cls-10" d="M649,4v645s595.76,0,595.76,0c28.92,0,52.44-22.9,53.22-51.45.01-.49.02-.98.02-1.47V56.93c0-.49,0-.98-.02-1.47-.78-28.55-24.3-51.46-53.22-51.46h-595.76Z"/><path class="cls-11" d="M649,4v645H53.24c-28.92,0-52.44-22.9-53.22-51.45-.01-.49-.02-.98-.02-1.47V56.93c0-.49,0-.98.02-1.47C.8,26.91,24.32,4,53.24,4h595.76Z"/><path class="cls-10" d="M930.7,112.67c-1.25.72-2.49,1.46-3.72,2.2-1.16.7-2.31,1.41-3.45,2.12-.86.54-1.72,1.08-2.57,1.63-.08.05-.15.1-.23.15-.55.34-1.08.69-1.62,1.04-.03.02-.05.03-.08.05-1.19.77-2.37,1.55-3.54,2.35-1.01.68-2.02,1.36-3.02,2.07-.69.47-1.37.95-2.05,1.43-.98.69-1.96,1.39-2.93,2.1-.84.61-1.69,1.22-2.52,1.86-.13.1-.25.19-.38.29-.67.49-1.34.99-2,1.5-.97.73-1.93,1.47-2.89,2.22,1.27-.3,2.55-.59,3.83-.87,1.28-.28,2.57-.55,3.85-.81,1.76-.36,3.53-.7,5.3-1.02.93-.17,1.87-.34,2.8-.5,1.16-.2,2.32-.4,3.49-.58,2.6-.41,5.21-.8,7.84-1.14.03,0,.07,0,.11-.01,1.32-.17,2.64-.33,3.96-.48v-15.71c-.06.04-.12.07-.18.11ZM930.7,112.67c-1.25.72-2.49,1.46-3.72,2.2-1.16.7-2.31,1.41-3.45,2.12-.86.54-1.72,1.08-2.57,1.63-.08.05-.15.1-.23.15-.55.34-1.08.69-1.62,1.04-.03.02-.05.03-.08.05-1.19.77-2.37,1.55-3.54,2.35-1.01.68-2.02,1.36-3.02,2.07-.69.47-1.37.95-2.05,1.43-.98.69-1.96,1.39-2.93,2.1-.84.61-1.69,1.22-2.52,1.86-.13.1-.25.19-.38.29-.67.49-1.34.99-2,1.5-.97.73-1.93,1.47-2.89,2.22-28.22,22.05-52.06,49.42-69.99,80.65-22.33,38.88-35.5,83.68-36.59,131.48,2.9-80.96,60.97-147.88,137.76-164.27v-68.98c-.06.04-.12.07-.18.11ZM930.7,112.67c-1.25.72-2.49,1.46-3.72,2.2-1.16.7-2.31,1.41-3.45,2.12-.86.54-1.72,1.08-2.57,1.63-.08.05-.15.1-.23.15-.55.34-1.08.69-1.62,1.04-.03.02-.05.03-.08.05-1.19.77-2.37,1.55-3.54,2.35-1.01.68-2.02,1.36-3.02,2.07-.69.47-1.37.95-2.05,1.43-.98.69-1.96,1.39-2.93,2.1-.84.61-1.69,1.22-2.52,1.86-.13.1-.25.19-.38.29-.67.49-1.34.99-2,1.5-.97.73-1.93,1.47-2.89,2.22-28.22,22.05-52.06,49.42-69.99,80.65-22.33,38.88-35.5,83.68-36.59,131.48,2.9-80.96,60.97-147.88,137.76-164.27v-68.98c-.06.04-.12.07-.18.11ZM930.7,112.67c-1.25.72-2.49,1.46-3.72,2.2-1.16.7-2.31,1.41-3.45,2.12-.86.54-1.72,1.08-2.57,1.63-.08.05-.15.1-.23.15-.55.34-1.08.69-1.62,1.04-.03.02-.05.03-.08.05-1.19.77-2.37,1.55-3.54,2.35-1.01.68-2.02,1.36-3.02,2.07-.69.47-1.37.95-2.05,1.43-.98.69-1.96,1.39-2.93,2.1-.84.61-1.69,1.22-2.52,1.86-.13.1-.25.19-.38.29-.67.49-1.34.99-2,1.5-.97.73-1.93,1.47-2.89,2.22-28.22,22.05-52.06,49.42-69.99,80.65-22.33,38.88-35.5,83.68-36.59,131.48,2.9-80.96,60.97-147.88,137.76-164.27v-68.98c-.06.04-.12.07-.18.11ZM930.7,112.67c-1.25.72-2.49,1.46-3.72,2.2-1.16.7-2.31,1.41-3.45,2.12-.86.54-1.72,1.08-2.57,1.63-.08.05-.15.1-.23.15-.55.34-1.08.69-1.62,1.04-.03.02-.05.03-.08.05-1.19.77-2.37,1.55-3.54,2.35-1.01.68-2.02,1.36-3.02,2.07-.69.47-1.37.95-2.05,1.43-.98.69-1.96,1.39-2.93,2.1-.84.61-1.69,1.22-2.52,1.86-.13.1-.25.19-.38.29-.67.49-1.34.99-2,1.5-.97.73-1.93,1.47-2.89,2.22-28.22,22.05-52.06,49.42-69.99,80.65-22.33,38.88-35.5,83.68-36.59,131.48,2.9-80.96,60.97-147.88,137.76-164.27v-68.98c-.06.04-.12.07-.18.11ZM1186.09,284.48c-22.07-28.29-49.51-52.19-80.79-70.15-1.02-.59-2.04-1.16-3.07-1.73-.46-.26-.92-.52-1.39-.77-.98-.54-1.97-1.07-2.96-1.6-1.12-.6-2.25-1.19-3.38-1.78-.18-.09-.36-.19-.55-.28-.02,0-.04-.02-.06-.03s-.03-.02-.05-.03c-1.17-.59-2.33-1.18-3.51-1.76-1.13-.56-2.26-1.11-3.4-1.66-.28-.14-.56-.27-.83-.39-1.13-.54-2.26-1.07-3.4-1.59-.04-.02-.08-.03-.11-.05-1.27-.58-2.55-1.15-3.83-1.71-1.3-.57-2.61-1.13-3.92-1.68-1.27-.54-2.54-1.07-3.82-1.58-.04-.02-.09-.04-.13-.05-1.32-.53-2.64-1.05-3.97-1.56h-.01c-1.14-.44-2.29-.87-3.44-1.3-.35-.13-.71-.25-1.06-.38-.14-.05-.29-.11-.43-.16-1.04-.38-2.07-.75-3.12-1.11-.43-.15-.86-.31-1.29-.45-.43-.15-.86-.3-1.3-.43-.09-.04-.17-.06-.26-.09-.15-.06-.29-.1-.44-.15-.05-.02-.09-.03-.14-.05-.09-.03-.18-.06-.27-.09-.07-.03-.13-.05-.2-.07-.32-.11-.64-.21-.96-.32-.95-.31-1.9-.61-2.85-.91-.42-.14-.83-.27-1.25-.4-1.01-.31-2.03-.62-3.05-.92-.2-.07-.4-.12-.59-.18-.84-.25-1.67-.49-2.51-.73-.18-.05-.37-.1-.55-.15-.47-.14-.94-.27-1.41-.4-.07-.02-.14-.04-.21-.06-1.11-.31-2.22-.61-3.34-.9-1.31-.35-2.62-.68-3.94-1.01-.08-.02-.17-.04-.26-.06-1.26-.31-2.53-.62-3.8-.91-.05-.01-.09-.02-.14-.03-.01,0-.03-.01-.04-.01-.34-.08-.68-.16-1.02-.23-.82-.19-1.64-.37-2.46-.54-.62-.14-1.25-.28-1.87-.4-.03-.01-.05-.01-.08-.02-.91-.2-1.82-.38-2.74-.56-.26-.05-.52-.11-.78-.15-.12-.02-.23-.05-.35-.07-1.25-.25-2.51-.49-3.77-.71h-.01c-1.37-.25-2.75-.49-4.13-.72-1.07-.17-2.15-.34-3.22-.5-.96-.15-1.92-.29-2.88-.42-.08,0-.17-.03-.25-.04-.85-.13-1.71-.24-2.57-.35-.1-.02-.19-.03-.29-.04-.84-.11-1.69-.22-2.54-.32-.23-.03-.46-.06-.69-.08-.42-.06-.84-.1-1.27-.15v1.05c79.56,14.58,140.27,83.14,142.73,166.32,0,.34.02.66.02,1,.04,1.43.06,2.84.06,4.27v.04c0,1.43-.02,2.86-.06,4.28,0,.35-.02.67-.02,1.01-2.75,92.16-76.95,166.35-169.1,169.09-.35,0-.67.02-1.01.02-1.43.04-2.84.06-4.26.06h-.04c-1.1,0-2.2-.01-3.29-.03-92.7-1.74-167.73-75.76-171.05-168.05v-.3c-.08-2.02-.12-4.07-.12-6.1s.04-4.06.12-6.08v-.28c2.9-80.96,60.97-147.88,137.76-164.27v-87.49c-44.81,14.98-84.52,41.1-115.83,75.07,0,0-.02,0-.02.02-28.73,31.17-50.4,68.93-62.45,110.75l-.02.02c-7.06,24.44-10.84,50.27-10.84,76.99,0,21.64,2.5,42.73,7.2,62.94-15.97-20.46-29.13-43.19-38.9-67.65-4.33-10.9-8.01-22.13-10.95-33.66-.09-.36-.19-.75-.29-1.16-.09-.34-.17-.67-.25-1.01-.02-.09-.04-.17-.06-.26-1.37-5.73-3.06-14.02-3.29-15.17-.02-.09-.03-.14-.03-.14,0,.11,0,.08,0,.1v.02c0,8.89.42,17.7,1.25,26.37v.02c1.36,14.45,3.84,28.57,7.34,42.29v.02c13.42,52.57,41.86,99.14,80.49,134.83v.02c31.24,28.84,69.14,50.61,111.13,62.7l.02.02c24.4,7.04,50.19,10.8,76.86,10.8,21.59,0,42.61-2.47,62.79-7.14-20.42,15.9-43.09,29.01-67.51,38.77-10.99,4.38-22.29,8.07-33.9,11.02-5.74,1.47-11.53,2.76-17.4,3.87,8.79,0,17.46-.41,26.03-1.23h.02c14.58-1.35,28.85-3.84,42.69-7.38,52.44-13.4,98.89-41.75,134.54-80.23,28.93-31.24,50.76-69.16,62.89-111.17,7.1-24.48,10.88-50.33,10.88-77.09,0-21.64-2.47-42.71-7.18-62.92ZM1239.86,300.85c-20.96-111.89-109.13-200.08-221.01-221.05h-.04c-6.48-1.22-13.04-2.2-19.67-2.95v103.71c79.56,14.58,140.27,83.14,142.73,166.32,0,.34.02.66.02,1,.04,1.43.06,2.84.06,4.27v.04c0,1.43-.02,2.86-.06,4.28,0,.35-.02.67-.02,1.01-2.75,92.16-76.95,166.35-169.1,169.09-.35,0-.67.02-1.01.02-1.43.04-2.84.06-4.26.06h-.04c-1.1,0-2.2-.01-3.29-.03-92.7-1.74-167.73-75.76-171.05-168.05v-.3c-.08-2.02-.12-4.07-.12-6.1s.04-4.06.12-6.08v-.28c2.9-80.96,60.97-147.88,137.76-164.27v-104.08c-4.94.65-9.85,1.43-14.7,2.34-111.87,20.95-200.05,109.12-221.03,220.99-3.1,16.61-4.75,33.84-4.75,51.36v.66c.04,17.3,1.67,34.24,4.75,50.66,20.94,111.87,109.14,200.06,220.99,221.03h.08c16.59,3.11,33.73,4.74,51.24,4.74h.04c17.54,0,34.68-1.63,51.31-4.74h.02c111.9-20.97,200.07-109.14,221.01-221.03v-.06c3.04-16.4,4.75-33.9,4.75-51.16v-.1c0-17.52-1.63-34.68-4.73-51.3ZM1239.86,300.85c-20.96-111.89-109.13-200.08-221.01-221.05h-.04c-6.48-1.22-13.04-2.2-19.67-2.95v103.71c79.56,14.58,140.27,83.14,142.73,166.32,0,.34.02.66.02,1,.04,1.43.06,2.84.06,4.27v.04c0,1.43-.02,2.86-.06,4.28,0,.35-.02.67-.02,1.01-2.75,92.16-76.95,166.35-169.1,169.09-.35,0-.67.02-1.01.02-1.43.04-2.84.06-4.26.06h-.04c-1.1,0-2.2-.01-3.29-.03-92.7-1.74-167.73-75.76-171.05-168.05v-.3c-.08-2.02-.12-4.07-.12-6.1s.04-4.06.12-6.08v-.28c2.9-80.96,60.97-147.88,137.76-164.27v-104.08c-4.94.65-9.85,1.43-14.7,2.34-111.87,20.95-200.05,109.12-221.03,220.99-3.1,16.61-4.75,33.84-4.75,51.36v.66c.04,17.3,1.67,34.24,4.75,50.66,20.94,111.87,109.14,200.06,220.99,221.03h.08c16.59,3.11,33.73,4.74,51.24,4.74h.04c17.54,0,34.68-1.63,51.31-4.74h.02c111.9-20.97,200.07-109.14,221.01-221.03v-.06c3.04-16.4,4.75-33.9,4.75-51.16v-.1c0-17.52-1.63-34.68-4.73-51.3ZM1297.98,55.46c-.01-.44-.03-.89-.05-1.33-1.47-27.93-24.71-50.13-53.18-50.13h-595.75v4h592.06c26.99,0,48.94,21.95,48.94,48.93v539.15c0,26.97-21.95,48.92-48.94,48.92h-592.06v4h595.75c28.47,0,51.71-22.19,53.18-50.12.02-.44.04-.88.05-1.33.01-.49.02-.98.02-1.47V56.93c0-.49-.01-.98-.02-1.47ZM793.12,345.81c2.9-80.96,60.97-147.88,137.76-164.27v-104.08c-4.94.65-9.85,1.43-14.7,2.34-111.87,20.95-200.05,109.12-221.03,220.99-3.1,16.61-4.75,33.84-4.75,51.36v.66c.04,17.3,1.67,34.24,4.75,50.66,20.94,111.87,109.14,200.06,220.99,221.03h.08c16.59,3.11,33.73,4.74,51.24,4.74h.04c17.54,0,34.68-1.63,51.31-4.74h.02c111.9-20.97,200.07-109.14,221.01-221.03v-.06c3.04-16.4,4.75-33.9,4.75-51.16v-.1c0-17.52-1.63-34.68-4.73-51.3-20.96-111.89-109.13-200.08-221.01-221.05h-.04c-6.48-1.22-13.04-2.2-19.67-2.95v103.71c79.56,14.58,140.27,83.14,142.73,166.32,0,.34.02.66.02,1,.04,1.43.06,2.84.06,4.27v.04c0,1.43-.02,2.86-.06,4.28,0,.35-.02.67-.02,1.01-2.75,92.16-76.95,166.35-169.1,169.09-.35,0-.67.02-1.01.02-1.43.04-2.84.06-4.26.06h-.04c-1.1,0-2.2-.01-3.29-.03-92.7-1.74-167.73-75.76-171.05-168.05v-.3c-.08-2.02-.12-4.07-.12-6.1s.04-4.06.12-6.08v-.28ZM1239.86,300.85c-20.96-111.89-109.13-200.08-221.01-221.05h-.04c-6.48-1.22-13.04-2.2-19.67-2.95v103.71c79.56,14.58,140.27,83.14,142.73,166.32,0,.34.02.66.02,1,.04,1.43.06,2.84.06,4.27v.04c0,1.43-.02,2.86-.06,4.28,0,.35-.02.67-.02,1.01-2.75,92.16-76.95,166.35-169.1,169.09-.35,0-.67.02-1.01.02-1.43.04-2.84.06-4.26.06h-.04c-1.1,0-2.2-.01-3.29-.03-92.7-1.74-167.73-75.76-171.05-168.05v-.3c-.08-2.02-.12-4.07-.12-6.1s.04-4.06.12-6.08v-.28c2.9-80.96,60.97-147.88,137.76-164.27v-104.08c-4.94.65-9.85,1.43-14.7,2.34-111.87,20.95-200.05,109.12-221.03,220.99-3.1,16.61-4.75,33.84-4.75,51.36v.66c.04,17.3,1.67,34.24,4.75,50.66,20.94,111.87,109.14,200.06,220.99,221.03h.08c16.59,3.11,33.73,4.74,51.24,4.74h.04c17.54,0,34.68-1.63,51.31-4.74h.02c111.9-20.97,200.07-109.14,221.01-221.03v-.06c3.04-16.4,4.75-33.9,4.75-51.16v-.1c0-17.52-1.63-34.68-4.73-51.3ZM1186.09,284.48c-22.07-28.29-49.51-52.19-80.79-70.15-1.02-.59-2.04-1.16-3.07-1.73-.46-.26-.92-.52-1.39-.77-.98-.54-1.97-1.07-2.96-1.6-1.12-.6-2.25-1.19-3.38-1.78-.18-.09-.36-.19-.55-.28-.02,0-.04-.02-.06-.03s-.03-.02-.05-.03c-1.17-.59-2.33-1.18-3.51-1.76-1.13-.56-2.26-1.11-3.4-1.66-.28-.14-.56-.27-.83-.39-1.13-.54-2.26-1.07-3.4-1.59-.04-.02-.08-.03-.11-.05-1.27-.58-2.55-1.15-3.83-1.71-1.3-.57-2.61-1.13-3.92-1.68-1.27-.54-2.54-1.07-3.82-1.58-.04-.02-.09-.04-.13-.05-1.32-.53-2.64-1.05-3.97-1.56h-.01c-1.14-.44-2.29-.87-3.44-1.3-.35-.13-.71-.25-1.06-.38-.14-.05-.29-.11-.43-.16-1.04-.38-2.07-.75-3.12-1.11-.43-.15-.86-.31-1.29-.45-.43-.15-.86-.3-1.3-.43-.09-.04-.17-.06-.26-.09-.15-.06-.29-.1-.44-.15-.05-.02-.09-.03-.14-.05-.09-.03-.18-.06-.27-.09-.07-.03-.13-.05-.2-.07-.32-.11-.64-.21-.96-.32-.95-.31-1.9-.61-2.85-.91-.42-.14-.83-.27-1.25-.4-1.01-.31-2.03-.62-3.05-.92-.2-.07-.4-.12-.59-.18-.84-.25-1.67-.49-2.51-.73-.18-.05-.37-.1-.55-.15-.47-.14-.94-.27-1.41-.4-.07-.02-.14-.04-.21-.06-1.11-.31-2.22-.61-3.34-.9-1.31-.35-2.62-.68-3.94-1.01-.08-.02-.17-.04-.26-.06-1.26-.31-2.53-.62-3.8-.91-.05-.01-.09-.02-.14-.03-.01,0-.03-.01-.04-.01-.34-.08-.68-.16-1.02-.23-.82-.19-1.64-.37-2.46-.54-.62-.14-1.25-.28-1.87-.4-.03-.01-.05-.01-.08-.02-.91-.2-1.82-.38-2.74-.56-.26-.05-.52-.11-.78-.15-.12-.02-.23-.05-.35-.07-1.25-.25-2.51-.49-3.77-.71h-.01c-1.37-.25-2.75-.49-4.13-.72-1.07-.17-2.15-.34-3.22-.5-.96-.15-1.92-.29-2.88-.42-.08,0-.17-.03-.25-.04-.85-.13-1.71-.24-2.57-.35-.1-.02-.19-.03-.29-.04-.84-.11-1.69-.22-2.54-.32-.23-.03-.46-.06-.69-.08-.42-.06-.84-.1-1.27-.15v1.05c79.56,14.58,140.27,83.14,142.73,166.32,0,.34.02.66.02,1,.04,1.43.06,2.84.06,4.27v.04c0,1.43-.02,2.86-.06,4.28,0,.35-.02.67-.02,1.01-2.75,92.16-76.95,166.35-169.1,169.09-.35,0-.67.02-1.01.02-1.43.04-2.84.06-4.26.06h-.04c-1.1,0-2.2-.01-3.29-.03-92.7-1.74-167.73-75.76-171.05-168.05v-.3c-.08-2.02-.12-4.07-.12-6.1s.04-4.06.12-6.08v-.28c2.9-80.96,60.97-147.88,137.76-164.27v-87.49c-44.81,14.98-84.52,41.1-115.83,75.07,0,0-.02,0-.02.02-28.73,31.17-50.4,68.93-62.45,110.75l-.02.02c-7.06,24.44-10.84,50.27-10.84,76.99,0,21.64,2.5,42.73,7.2,62.94-15.97-20.46-29.13-43.19-38.9-67.65-4.33-10.9-8.01-22.13-10.95-33.66-.09-.36-.19-.75-.29-1.16-.09-.34-.17-.67-.25-1.01-.02-.09-.04-.17-.06-.26-1.37-5.73-3.06-14.02-3.29-15.17-.02-.09-.03-.14-.03-.14,0,.11,0,.08,0,.1v.02c0,8.89.42,17.7,1.25,26.37v.02c1.36,14.45,3.84,28.57,7.34,42.29v.02c13.42,52.57,41.86,99.14,80.49,134.83v.02c31.24,28.84,69.14,50.61,111.13,62.7l.02.02c24.4,7.04,50.19,10.8,76.86,10.8,21.59,0,42.61-2.47,62.79-7.14-20.42,15.9-43.09,29.01-67.51,38.77-10.99,4.38-22.29,8.07-33.9,11.02-5.74,1.47-11.53,2.76-17.4,3.87,8.79,0,17.46-.41,26.03-1.23h.02c14.58-1.35,28.85-3.84,42.69-7.38,52.44-13.4,98.89-41.75,134.54-80.23,28.93-31.24,50.76-69.16,62.89-111.17,7.1-24.48,10.88-50.33,10.88-77.09,0-21.64-2.47-42.71-7.18-62.92ZM930.7,112.67c-1.25.72-2.49,1.46-3.72,2.2-1.16.7-2.31,1.41-3.45,2.12-.86.54-1.72,1.08-2.57,1.63-.08.05-.15.1-.23.15-.55.34-1.08.69-1.62,1.04-.03.02-.05.03-.08.05-1.19.77-2.37,1.55-3.54,2.35-1.01.68-2.02,1.36-3.02,2.07-.69.47-1.37.95-2.05,1.43-.98.69-1.96,1.39-2.93,2.1-.84.61-1.69,1.22-2.52,1.86-.13.1-.25.19-.38.29-.67.49-1.34.99-2,1.5-.97.73-1.93,1.47-2.89,2.22-28.22,22.05-52.06,49.42-69.99,80.65-22.33,38.88-35.5,83.68-36.59,131.48,2.9-80.96,60.97-147.88,137.76-164.27v-68.98c-.06.04-.12.07-.18.11ZM930.7,112.67c-1.25.72-2.49,1.46-3.72,2.2-1.16.7-2.31,1.41-3.45,2.12-.86.54-1.72,1.08-2.57,1.63-.08.05-.15.1-.23.15-.55.34-1.08.69-1.62,1.04-.03.02-.05.03-.08.05-1.19.77-2.37,1.55-3.54,2.35-1.01.68-2.02,1.36-3.02,2.07-.69.47-1.37.95-2.05,1.43-.98.69-1.96,1.39-2.93,2.1-.84.61-1.69,1.22-2.52,1.86-.13.1-.25.19-.38.29-.67.49-1.34.99-2,1.5-.97.73-1.93,1.47-2.89,2.22-28.22,22.05-52.06,49.42-69.99,80.65-22.33,38.88-35.5,83.68-36.59,131.48,2.9-80.96,60.97-147.88,137.76-164.27v-68.98c-.06.04-.12.07-.18.11ZM930.7,112.67c-1.25.72-2.49,1.46-3.72,2.2-1.16.7-2.31,1.41-3.45,2.12-.86.54-1.72,1.08-2.57,1.63-.08.05-.15.1-.23.15-.55.34-1.08.69-1.62,1.04-.03.02-.05.03-.08.05-1.19.77-2.37,1.55-3.54,2.35-1.01.68-2.02,1.36-3.02,2.07-.69.47-1.37.95-2.05,1.43-.98.69-1.96,1.39-2.93,2.1-.84.61-1.69,1.22-2.52,1.86-.13.1-.25.19-.38.29-.67.49-1.34.99-2,1.5-.97.73-1.93,1.47-2.89,2.22-28.22,22.05-52.06,49.42-69.99,80.65-22.33,38.88-35.5,83.68-36.59,131.48,2.9-80.96,60.97-147.88,137.76-164.27v-68.98c-.06.04-.12.07-.18.11ZM930.7,112.67c-1.25.72-2.49,1.46-3.72,2.2-1.16.7-2.31,1.41-3.45,2.12-.86.54-1.72,1.08-2.57,1.63-.08.05-.15.1-.23.15-.55.34-1.08.69-1.62,1.04-.03.02-.05.03-.08.05-1.19.77-2.37,1.55-3.54,2.35-1.01.68-2.02,1.36-3.02,2.07-.69.47-1.37.95-2.05,1.43-.98.69-1.96,1.39-2.93,2.1-.84.61-1.69,1.22-2.52,1.86-.13.1-.25.19-.38.29-.67.49-1.34.99-2,1.5-.97.73-1.93,1.47-2.89,2.22-28.22,22.05-52.06,49.42-69.99,80.65-22.33,38.88-35.5,83.68-36.59,131.48,2.9-80.96,60.97-147.88,137.76-164.27v-68.98c-.06.04-.12.07-.18.11ZM930.7,112.67c-1.25.72-2.49,1.46-3.72,2.2-1.16.7-2.31,1.41-3.45,2.12-.86.54-1.72,1.08-2.57,1.63-.08.05-.15.1-.23.15-.55.34-1.08.69-1.62,1.04-.03.02-.05.03-.08.05-1.19.77-2.37,1.55-3.54,2.35-1.01.68-2.02,1.36-3.02,2.07-.69.47-1.37.95-2.05,1.43-.98.69-1.96,1.39-2.93,2.1-.84.61-1.69,1.22-2.52,1.86-.13.1-.25.19-.38.29-.67.49-1.34.99-2,1.5-.97.73-1.93,1.47-2.89,2.22-28.22,22.05-52.06,49.42-69.99,80.65-22.33,38.88-35.5,83.68-36.59,131.48,2.9-80.96,60.97-147.88,137.76-164.27v-68.98c-.06.04-.12.07-.18.11ZM930.7,112.67c-1.25.72-2.49,1.46-3.72,2.2-1.16.7-2.31,1.41-3.45,2.12-.86.54-1.72,1.08-2.57,1.63-.08.05-.15.1-.23.15-.55.34-1.08.69-1.62,1.04-.03.02-.05.03-.08.05-1.19.77-2.37,1.55-3.54,2.35-1.01.68-2.02,1.36-3.02,2.07-.69.47-1.37.95-2.05,1.43-.98.69-1.96,1.39-2.93,2.1-.84.61-1.69,1.22-2.52,1.86-.13.1-.25.19-.38.29-.67.49-1.34.99-2,1.5-.97.73-1.93,1.47-2.89,2.22-28.22,22.05-52.06,49.42-69.99,80.65-22.33,38.88-35.5,83.68-36.59,131.48,2.9-80.96,60.97-147.88,137.76-164.27v-68.98c-.06.04-.12.07-.18.11ZM930.7,112.67c-1.25.72-2.49,1.46-3.72,2.2-1.16.7-2.31,1.41-3.45,2.12-.86.54-1.72,1.08-2.57,1.63-.08.05-.15.1-.23.15-.55.34-1.08.69-1.62,1.04-.03.02-.05.03-.08.05-1.19.77-2.37,1.55-3.54,2.35-1.01.68-2.02,1.36-3.02,2.07-.69.47-1.37.95-2.05,1.43-.98.69-1.96,1.39-2.93,2.1-.84.61-1.69,1.22-2.52,1.86-.13.1-.25.19-.38.29-.67.49-1.34.99-2,1.5-.97.73-1.93,1.47-2.89,2.22-28.22,22.05-52.06,49.42-69.99,80.65-22.33,38.88-35.5,83.68-36.59,131.48,2.9-80.96,60.97-147.88,137.76-164.27v-68.98c-.06.04-.12.07-.18.11Z"/><g id="spirale"><path class="cls-9" d="M1141.87,357.48c-.9,48.2-14.1,93.4-36.63,132.57v.02c-17.99,31.26-41.89,58.7-70.19,80.75l-.02.02c-20.18,4.67-41.2,7.14-62.79,7.14-26.67,0-52.46-3.76-76.86-10.8l-.02-.02c-41.99-12.09-79.89-33.86-111.13-62.7v-.02c-38.63-35.69-67.07-82.26-80.49-134.83v-.02c-3.5-13.72-5.98-27.84-7.34-42.29v-.02c-.83-8.67-1.25-17.48-1.25-26.37v-.02s0,.01,0-.1c0,0,.01.05.03.14,1.35,5.4,2.15,10.25,3.29,15.17.02.09.04.17.06.26.08.34.16.67.25,1.01.1.41.2.8.29,1.16,2.94,11.53,6.62,22.76,10.95,33.66,9.77,24.46,22.93,47.19,38.9,67.65v.02c22.07,28.33,49.53,52.21,80.83,70.17,0,.02.02.02.02.02v.02c.95.55,1.91,1.09,2.87,1.62.1.05.2.11.3.17.39.21.78.42,1.18.64,1.88,1.04,3.77,2.05,5.67,3.04.44.24.89.46,1.33.69.43.22.86.44,1.29.65.85.44,1.71.87,2.57,1.29,1.17.58,2.34,1.15,3.52,1.7.5.25,1,.49,1.51.71.08.05.16.08.24.12.09.04.17.08.26.12.14.06.27.13.41.19.77.36,1.55.72,2.32,1.07,1.34.61,2.69,1.2,4.04,1.79,1.02.44,2.04.88,3.07,1.31.2.08.39.16.59.24.37.16.75.32,1.13.47.37.15.74.31,1.12.45.15.07.3.13.45.19,1.76.72,3.53,1.41,5.31,2.08.34.13.7.27,1.04.4.02.01.03.01.05.02.51.19,1.01.38,1.52.56,1.01.38,2.03.75,3.04,1.1.03.01.05.02.08.03.81.3,1.62.58,2.44.85.04.02.07.03.11.04.09.03.17.06.26.09.13.05.25.09.38.13,1.23.43,2.47.84,3.72,1.25.65.21,1.3.42,1.96.62.06.02.12.04.18.06.81.26,1.62.52,2.43.76,1.2.37,2.4.73,3.6,1.08.08.02.16.05.24.07.83.24,1.65.48,2.48.7.29.09.58.17.87.25.19.05.37.1.56.15,1.04.3,2.09.58,3.14.84.42.12.84.23,1.26.33.66.18,1.31.34,1.97.5.65.16,1.31.32,1.97.48,1.11.28,2.23.54,3.35.78.5.13,1.01.24,1.51.35.05.01.09.02.14.03,1.2.27,2.42.53,3.64.78,1.22.26,2.44.51,3.66.73.48.1.95.19,1.43.27.79.16,1.58.3,2.37.44.68.13,1.36.25,2.04.36.06,0,.13.02.19.03.76.14,1.53.27,2.3.38.04.01.08.01.12.02.69.12,1.38.23,2.07.33.1.02.2.03.3.04.56.1,1.13.18,1.69.25.11.02.21.04.32.05.69.11,1.37.21,2.06.29.05.01.1.01.15.02.58.08,1.15.16,1.74.23.11.02.23.04.34.05.72.1,1.44.19,2.17.27.93.12,1.86.22,2.8.32.42.06.85.1,1.28.15.14.01.29.03.43.04,1.02.11,2.02.2,3.04.3.3.03.6.06.9.08,1.36.13,2.72.25,4.09.34.63.05,1.26.09,1.89.14.55.04,1.09.08,1.64.1.08.01.17.01.25.02.57.04,1.15.08,1.72.1.04,0,.08,0,.12.01.14.01.27.01.41.02h.01c.75.05,1.51.09,2.26.11.69.04,1.39.07,2.09.09.17.01.33.01.5.02.55.02,1.11.03,1.67.05.06,0,.12,0,.18.01.65.03,1.32.04,1.98.05h.17c.96.03,1.93.05,2.9.05,1.09.02,2.19.03,3.29.03h.04c1.42,0,2.83-.02,4.26-.06.34,0,.66-.02,1.01-.02,92.15-2.74,166.35-76.93,169.1-169.09Z"/><path class="cls-7" d="M1035.03,570.84c-20.42,15.9-43.09,29.01-67.51,38.77-10.99,4.38-22.29,8.07-33.9,11.02-5.74,1.47-11.53,2.76-17.4,3.87h-.08c-111.85-20.97-200.05-109.16-220.99-221.03-3.08-16.42-4.71-33.36-4.75-50.66v-.66c0-17.52,1.65-34.75,4.75-51.36,0,.11,0,.08,0,.1v.02c0,8.89.42,17.7,1.25,26.37v.02c1.36,14.45,3.84,28.57,7.34,42.29v.02c13.42,52.57,41.86,99.14,80.49,134.83v.02c31.24,28.84,69.14,50.61,111.13,62.7l.02.02c24.4,7.04,50.19,10.8,76.86,10.8,21.59,0,42.61-2.47,62.79-7.14Z"/><path class="cls-7" d="M930.88,112.56v15.71c-1.32.15-2.64.31-3.96.48-.04.01-.08.01-.11.01-2.63.34-5.24.73-7.84,1.14-1.17.18-2.33.38-3.49.58-.93.16-1.87.33-2.8.5-1.77.32-3.54.66-5.3,1.02-1.28.26-2.57.53-3.85.81-1.28.28-2.56.57-3.83.87.96-.75,1.92-1.49,2.89-2.22.66-.51,1.33-1.01,2-1.5.13-.1.25-.19.38-.29.83-.64,1.68-1.25,2.52-1.86.97-.71,1.95-1.41,2.93-2.1.68-.48,1.36-.96,2.05-1.43,1-.71,2.01-1.39,3.02-2.07,1.17-.8,2.35-1.58,3.54-2.35.03-.02.05-.03.08-.05.54-.35,1.07-.7,1.62-1.04.08-.05.15-.1.23-.15.85-.55,1.71-1.09,2.57-1.63,1.14-.71,2.29-1.42,3.45-2.12,1.23-.74,2.47-1.48,3.72-2.2.06-.04.12-.07.18-.11Z"/><path class="cls-7" d="M1244.59,352.15v.1c0,17.26-1.71,34.76-4.74,51.16v.06c-.03-8.69-.33-17.89-1.13-26.36-1.37-14.54-3.89-28.76-7.43-42.56-13.44-52.51-41.88-99.02-80.51-134.67-31.18-28.81-69.02-50.51-110.94-62.6-.83-.24-1.65-.47-2.48-.7-.82-.23-1.65-.46-2.48-.68-1.23-.33-2.47-.65-3.71-.97-.19-.05-.37-.1-.55-.14-1.09-.27-2.18-.54-3.27-.8-1.24-.3-2.49-.59-3.74-.87-.01,0-.03,0-.05-.01-1.27-.28-2.54-.55-3.81-.82-.51-.11-1.04-.22-1.56-.32-.55-.12-1.1-.22-1.65-.33-.79-.16-1.58-.31-2.37-.46-1.5-.28-3.01-.55-4.52-.81-2.62-.44-5.25-.85-7.9-1.22-.87-.12-1.74-.24-2.61-.35v-44.54c.74-.21,1.48-.4,2.23-.59,5.74-1.47,11.55-2.76,17.44-3.87h.04c111.88,20.97,200.05,109.16,221.01,221.05,3.1,16.62,4.73,33.78,4.73,51.3Z"/><path class="cls-1" d="M964.17,526.62c-.97-.01-1.94-.02-2.9-.05h-.17c-.66-.01-1.33-.02-1.98-.05-.06-.01-.12-.01-.18-.01-.56-.02-1.12-.03-1.67-.05-.17-.01-.33-.01-.5-.02-.7-.02-1.4-.05-2.09-.09-.75-.03-1.5-.07-2.26-.11h-.01c-.14,0-.27,0-.41-.02-.04-.01-.08-.01-.12-.01-.57-.02-1.15-.06-1.72-.1-.08-.01-.17-.01-.25-.02-.55-.03-1.09-.07-1.64-.1-.63-.05-1.26-.09-1.89-.14-1.37-.1-2.73-.21-4.09-.34-.3-.02-.6-.05-.9-.08-1.02-.1-2.02-.19-3.04-.3-.14-.01-.29-.03-.43-.04-.43-.05-.86-.09-1.28-.15-.94-.1-1.87-.2-2.8-.32-.73-.08-1.45-.17-2.17-.27-.11-.01-.23-.03-.34-.05-.59-.07-1.16-.15-1.74-.23-.05-.01-.1-.01-.15-.02-.69-.08-1.37-.18-2.06-.29-.11-.01-.21-.03-.32-.05-.56-.08-1.13-.16-1.69-.25-.1-.01-.2-.02-.3-.04-.69-.1-1.38-.21-2.07-.33-.04-.01-.08-.01-.12-.02-.77-.12-1.53-.25-2.3-.38-.06-.01-.13-.02-.19-.03-.68-.11-1.36-.23-2.04-.36-.79-.14-1.58-.28-2.37-.44-.48-.08-.95-.17-1.43-.27-1.22-.23-2.44-.48-3.66-.73s-2.44-.51-3.64-.78c-.05-.01-.09-.02-.14-.03-.5-.11-1.01-.22-1.51-.35-1.12-.25-2.24-.51-3.35-.78-.66-.16-1.32-.32-1.97-.48-.66-.16-1.31-.33-1.97-.5-.42-.1-.84-.21-1.26-.33-1.05-.27-2.1-.55-3.14-.84-.19-.05-.37-.1-.56-.15-.29-.08-.58-.16-.87-.25-.83-.22-1.65-.46-2.48-.7-.08-.02-.16-.05-.24-.07-1.2-.35-2.4-.71-3.6-1.08-.81-.24-1.62-.5-2.43-.76-.06-.02-.12-.04-.18-.06-.66-.2-1.31-.41-1.96-.62-1.25-.41-2.49-.82-3.72-1.25-.13-.04-.25-.08-.38-.13-.09-.03-.17-.06-.26-.09-.04-.01-.07-.02-.11-.04-.82-.27-1.63-.55-2.44-.85-.03-.01-.05-.02-.08-.03-1.01-.35-2.03-.72-3.04-1.1-.51-.18-1.01-.37-1.52-.56-.02-.01-.03-.01-.05-.02-.34-.13-.7-.27-1.04-.4-1.78-.67-3.55-1.36-5.31-2.08-.15-.06-.3-.12-.45-.19-.38-.14-.75-.3-1.12-.45-.38-.15-.76-.31-1.13-.47-.2-.08-.39-.16-.59-.24-1.03-.43-2.05-.87-3.07-1.31-1.35-.59-2.7-1.18-4.04-1.79-.77-.35-1.55-.71-2.32-1.07-.14-.06-.27-.13-.41-.19-.09-.04-.17-.08-.26-.12-.08-.04-.16-.07-.24-.12-.5-.23-1.01-.47-1.51-.71-1.18-.55-2.35-1.12-3.52-1.7-.86-.42-1.72-.85-2.57-1.29-.43-.21-.86-.43-1.29-.65-.44-.23-.89-.45-1.33-.69-1.9-.99-3.79-2-5.67-3.04-.4-.22-.79-.43-1.18-.64-.1-.06-.2-.12-.3-.17-.96-.53-1.92-1.07-2.87-1.62v-.02s-.02,0-.02-.02c-31.3-17.96-58.76-41.84-80.83-70.17v-.02c-4.7-20.21-7.2-41.3-7.2-62.94,0-26.72,3.78-52.55,10.84-76.99l.02-.02c12.05-41.82,33.72-79.58,62.45-110.75,0-.02.02-.02.02-.02,31.31-33.97,71.02-60.09,115.83-75.07v18.51c-.06.04-.12.07-.18.11-1.25.72-2.49,1.46-3.72,2.2-1.16.7-2.31,1.41-3.45,2.12-.86.54-1.72,1.08-2.57,1.63-.08.05-.15.1-.23.15-.55.34-1.08.69-1.62,1.04-.03.02-.05.03-.08.05-1.19.77-2.37,1.55-3.54,2.35-1.01.68-2.02,1.36-3.02,2.07-.69.47-1.37.95-2.05,1.43-.98.69-1.96,1.39-2.93,2.1-.84.61-1.69,1.22-2.52,1.86-.13.1-.25.19-.38.29-.67.49-1.34.99-2,1.5-.97.73-1.93,1.47-2.89,2.22-28.22,22.05-52.06,49.42-69.99,80.65-22.33,38.88-35.5,83.68-36.59,131.48v.28c-.08,2.02-.12,4.05-.12,6.08s.04,4.08.12,6.1v.3c3.32,92.29,78.35,166.31,171.05,168.05Z"/><path class="cls-4" d="M1018.81,79.8c-5.89,1.11-11.7,2.4-17.44,3.87-.75.19-1.49.38-2.23.59v-3.77c6.5-.46,13.06-.69,19.67-.69Z"/><path class="cls-2" d="M930.88,77.46v16.59c-44.81,14.98-84.52,41.1-115.83,75.07,0,0-.02,0-.02.02-28.73,31.17-50.4,68.93-62.45,110.75l-.02.02c-7.06,24.44-10.84,50.27-10.84,76.99,0,21.64,2.5,42.73,7.2,62.94-15.97-20.46-29.13-43.19-38.9-67.65-4.33-10.9-8.01-22.13-10.95-33.66-.09-.36-.19-.75-.29-1.16-.09-.34-.17-.67-.25-1.01-.02-.09-.04-.17-.06-.26-1.37-5.73-3.06-14.02-3.29-15.17-.02-.09-.03-.14-.03-.14,20.98-111.87,109.16-200.04,221.03-220.99,4.85-.91,9.76-1.69,14.7-2.34Z"/><path class="cls-6" d="M1018.81,79.8c-6.61,0-13.17.23-19.67.69v-3.64c6.63.75,13.19,1.73,19.67,2.95Z"/><path class="cls-3" d="M1193.27,347.4c0,26.76-3.78,52.61-10.88,77.09-12.13,42.01-33.96,79.93-62.89,111.17-35.65,38.48-82.1,66.83-134.54,80.23-13.84,3.54-28.11,6.03-42.69,7.38h-.02c-8.57.82-17.24,1.23-26.03,1.23,5.87-1.11,11.66-2.4,17.4-3.87,11.61-2.95,22.91-6.64,33.9-11.02,24.42-9.76,47.09-22.87,67.51-38.77l.02-.02c28.3-22.05,52.2-49.49,70.19-80.75v-.02c22.53-39.17,35.73-84.37,36.63-132.57,0-.34.02-.66.02-1.01.04-1.42.06-2.85.06-4.28v-.04c0-1.43-.02-2.84-.06-4.27,0-.34-.02-.66-.02-1-2.46-83.18-63.17-151.74-142.73-166.32v-1.05c.43.05.85.09,1.27.15.23.02.46.05.69.08.85.1,1.7.21,2.54.32.1.01.19.02.29.04.86.11,1.72.22,2.57.35.08.01.17.03.25.04.96.13,1.92.27,2.88.42,1.07.16,2.15.33,3.22.5,1.38.23,2.76.47,4.13.72h.01c1.26.22,2.52.46,3.77.71.12.02.23.05.35.07.26.04.52.1.78.15.92.18,1.83.36,2.74.56.03.01.05.01.08.02.62.12,1.25.26,1.87.4.82.17,1.64.35,2.46.54.34.07.68.15,1.02.23.01,0,.03.01.04.01.05.01.09.02.14.03,1.27.29,2.54.6,3.8.91.09.02.18.04.26.06,1.32.33,2.63.66,3.94,1.01,1.12.29,2.23.59,3.34.9.07.02.14.04.21.06.47.13.94.26,1.41.4.18.05.37.1.55.15.84.24,1.67.48,2.51.73.19.06.39.11.59.18,1.02.3,2.04.61,3.05.92.42.13.83.26,1.25.4.95.3,1.9.6,2.85.91.32.11.64.21.96.32.07.02.13.04.2.07.09.03.18.06.27.09.05.02.09.03.14.05.15.05.29.09.44.15.09.03.17.05.26.09.44.13.87.28,1.3.43.43.14.86.3,1.29.45,1.05.36,2.08.73,3.12,1.11.14.05.29.11.43.16.35.13.71.25,1.06.38,1.15.43,2.3.86,3.44,1.3h.01c1.33.51,2.65,1.03,3.97,1.56.04.01.09.03.13.05,1.28.51,2.55,1.04,3.82,1.58,1.31.55,2.62,1.11,3.92,1.68,1.28.56,2.56,1.13,3.83,1.71.03.02.07.03.11.05,1.14.52,2.27,1.05,3.4,1.59.27.12.55.25.83.39,1.14.55,2.27,1.1,3.4,1.66,1.18.58,2.34,1.17,3.51,1.76.02.01.03.02.05.03s.04.02.06.03c.19.09.37.19.55.28,1.13.59,2.26,1.18,3.38,1.78.99.53,1.98,1.06,2.96,1.6.47.25.93.51,1.39.77,1.03.57,2.05,1.14,3.07,1.73,31.28,17.96,58.72,41.86,80.79,70.15,4.71,20.21,7.18,41.28,7.18,62.92Z"/><path class="cls-5" d="M1239.84,403.47c-20.94,111.89-109.11,200.06-221.01,221.03h-.02c-16.63,3.11-33.77,4.74-51.31,4.74h-.04c-17.51,0-34.65-1.63-51.24-4.74,8.79,0,17.46-.41,26.03-1.23h.02c14.58-1.35,28.85-3.84,42.69-7.38,52.44-13.4,98.89-41.75,134.54-80.23,28.93-31.24,50.76-69.16,62.89-111.17,7.1-24.48,10.88-50.33,10.88-77.09,0-21.64-2.47-42.71-7.18-62.92,15.95,20.45,29.11,43.23,38.89,67.71,4.36,10.96,8.06,22.25,11.02,33.86v.02c1.47,5.73,2.74,11.52,3.84,17.4Z"/><path class="cls-9" d="M930.88,128.27v53.27c-76.79,16.39-134.86,83.31-137.76,164.27,1.09-47.8,14.26-92.6,36.59-131.48,17.93-31.23,41.77-58.6,69.99-80.65,1.27-.3,2.55-.59,3.83-.87,1.28-.28,2.57-.55,3.85-.81,1.76-.36,3.53-.7,5.3-1.02.93-.17,1.87-.34,2.8-.5,1.16-.2,2.32-.4,3.49-.58,2.6-.41,5.21-.8,7.84-1.14.03,0,.07,0,.11-.01,1.32-.17,2.64-.33,3.96-.48Z"/><path class="cls-9" d="M1236,386.07v-.02c-2.96-11.61-6.66-22.9-11.02-33.86-9.78-24.48-22.94-47.26-38.89-67.71-22.07-28.29-49.51-52.19-80.79-70.15-1.02-.59-2.04-1.16-3.07-1.73-.46-.26-.92-.52-1.39-.77-.98-.54-1.97-1.08-2.96-1.6-1.12-.6-2.25-1.2-3.38-1.78-.18-.09-.36-.19-.55-.28-.02,0-.04-.02-.06-.03s-.03-.02-.05-.03c-1.16-.6-2.33-1.19-3.51-1.76-1.13-.57-2.26-1.12-3.4-1.66-.28-.14-.56-.27-.83-.39-1.13-.54-2.26-1.07-3.4-1.59-.04-.02-.08-.03-.11-.05-1.27-.58-2.55-1.15-3.83-1.71-1.3-.57-2.6-1.14-3.92-1.68-1.27-.54-2.54-1.07-3.82-1.58-.04-.02-.09-.04-.13-.05-1.32-.53-2.64-1.05-3.97-1.56h-.01c-1.14-.45-2.29-.88-3.44-1.3-.35-.13-.71-.25-1.06-.38-.14-.05-.29-.11-.43-.16-1.04-.38-2.07-.75-3.12-1.11-.43-.15-.86-.31-1.29-.45-.43-.15-.86-.3-1.3-.43-.09-.04-.17-.06-.26-.09-.15-.06-.29-.1-.44-.15-.05-.02-.09-.03-.14-.05-.09-.03-.18-.06-.27-.09-.07-.03-.13-.05-.2-.07-.32-.11-.64-.21-.96-.32-.95-.31-1.9-.61-2.85-.91-.42-.14-.83-.27-1.25-.4-1.01-.31-2.03-.62-3.05-.92-.2-.07-.4-.12-.59-.18-.84-.25-1.67-.49-2.51-.73-.18-.05-.37-.1-.55-.15-.47-.14-.94-.27-1.41-.4-.07-.02-.14-.04-.21-.06-1.11-.31-2.22-.61-3.34-.9-1.31-.35-2.62-.68-3.94-1.01-.08-.02-.17-.04-.26-.06-1.26-.32-2.53-.62-3.8-.91-.05-.01-.09-.02-.14-.03-.01,0-.03-.01-.04-.01-.34-.08-.68-.16-1.02-.23-.82-.19-1.64-.37-2.46-.54-.62-.14-1.25-.28-1.87-.4-.03-.01-.05-.01-.08-.02-.91-.2-1.82-.38-2.74-.56-.26-.05-.52-.11-.78-.15-.12-.02-.23-.05-.35-.07-1.25-.25-2.51-.49-3.77-.71h-.01c-1.37-.25-2.75-.49-4.13-.72-1.07-.17-2.15-.34-3.22-.5-.96-.15-1.92-.29-2.88-.42-.08,0-.17-.03-.25-.04-.85-.13-1.71-.24-2.57-.35-.1-.02-.19-.03-.29-.04-.84-.11-1.69-.22-2.54-.32-.23-.03-.46-.06-.69-.08-.42-.06-.84-.1-1.27-.15v-50.71c.87.11,1.74.23,2.61.35,2.65.37,5.28.78,7.9,1.22,1.51.26,3.02.53,4.52.81.79.15,1.58.3,2.37.46.55.11,1.1.21,1.65.33.52.1,1.05.21,1.56.32,1.27.27,2.54.54,3.81.82.02.01.04.01.05.01,1.25.28,2.5.57,3.74.87,1.09.26,2.18.53,3.27.8.18.04.36.09.55.14,1.24.32,2.48.64,3.71.97.83.22,1.66.45,2.48.68.83.23,1.65.46,2.48.7,41.92,12.09,79.76,33.79,110.94,62.6,38.63,35.65,67.07,82.16,80.51,134.67,3.54,13.8,6.06,28.02,7.43,42.56.8,8.47,1.1,17.67,1.12,26.36-1.1-5.88-2.37-11.67-3.84-17.4Z"/></g><path class="cls-8" d="M174.53,178.75l-44.99-124.61s-.01-.03-.02-.04c-.27-.74-.65-1.37-1.12-1.87-.49-.52-1.18-.92-2.08-1.2-.9-.27-2.07-.46-3.52-.57-1.45-.1-3.28-.15-5.49-.15-2.08,0-3.79.05-5.14.15-1.34.11-2.45.3-3.31.57-.87.28-1.52.66-1.97,1.14-.45.49-.82,1.11-1.09,1.87l-44.99,124.6c-.55,1.52-.85,2.75-.88,3.68-.04.93.21,1.64.72,2.13.46.43,1.22.73,2.28.92.13.02.27.04.42.06,1.28.17,2.92.26,4.92.26s3.51-.07,4.72-.21c1.21-.14,2.14-.36,2.8-.67.65-.31,1.15-.69,1.5-1.14.35-.45.62-.99.83-1.61l10.99-32.24h55.77l1.06,3,10.45,29.66c.27.62.57,1.14.88,1.55.31.42.79.75,1.45.99.17.06.36.12.57.17.6.15,1.38.27,2.33.35,1.28.1,2.99.15,5.13.15s3.85-.07,5.13-.21,2.2-.45,2.75-.93.81-1.19.78-2.13c-.04-.93-.33-2.15-.88-3.67ZM116.68,68.76h.11l1.98,5.64,21.44,61.22h-46.64l23.11-66.86Z"/><path class="cls-10" d="M177.53,181.75l-44.99-124.61c-.28-.76-.66-1.4-1.14-1.91-.45-.48-1.08-.86-1.88-1.13-.07-.03-.13-.05-.2-.07-.9-.27-2.07-.46-3.52-.57-1.45-.1-3.28-.15-5.49-.15-2.08,0-3.79.05-5.14.15-1.34.11-2.45.3-3.31.57-.87.28-1.52.66-1.97,1.14-.45.49-.82,1.11-1.09,1.87l-44.99,124.6c-.55,1.52-.85,2.75-.88,3.68v.05c-.03.91.22,1.6.72,2.08.52.48,1.42.81,2.7.98s2.92.26,4.92.26,3.51-.07,4.72-.21c1.21-.14,2.14-.36,2.8-.67.65-.31,1.15-.69,1.5-1.14.35-.45.62-.99.83-1.61l10.99-32.24h55.77l11.41,32.37.1.29c.27.62.57,1.14.88,1.55.31.42.79.75,1.45.99.65.24,1.62.41,2.9.52,1.28.1,2.99.15,5.13.15s3.85-.07,5.13-.21,2.2-.45,2.75-.93.81-1.19.78-2.13c-.04-.93-.33-2.15-.88-3.67ZM119.68,71.76h.11l23.42,66.86h-46.64l1.04-3,21.16-61.22.91-2.64Z"/><path class="cls-9" d="M358.97,88.87c-2.66-7.61-6.5-14.14-11.52-19.59-.27-.3-.54-.59-.82-.88-5.43-5.63-12.15-9.95-20.16-12.96-8.02-3.01-17.83-4.51-29.44-4.51h-30.38c-1.58,0-3.09.54-4.5,1.61-1.42,1.07-2.13,2.95-2.13,5.65v119.62c0,2.7.71,4.58,2.13,5.65.47.36.95.65,1.44.88.98.49,2,.73,3.06.73h28.41c11.47,0,21.35-1.42,29.65-4.25,8.29-2.83,15.29-7.1,20.99-12.8,5.7-5.71,10.03-12.89,13.01-21.57,2.97-8.67,4.45-18.81,4.45-30.42,0-10.09-1.4-19.14-4.19-27.16ZM277.85,65.75h18.14c9.26,0,16.83,1.28,22.7,3.84,5.54,2.41,10.16,5.71,13.9,9.9.22.25.45.52.67.78,3.83,4.56,6.65,9.97,8.45,16.22,1.79,6.26,2.69,13.01,2.69,20.27,0,9.12-.98,17.01-2.95,23.68s-4.93,12.22-8.87,16.64c-3.93,4.42-8.84,7.71-14.72,9.85-5.87,2.14-13.09,3.21-21.66,3.21h-18.35v-104.39Z"/><path class="cls-10" d="M361.97,91.87c-2.8-8.02-6.92-14.84-12.34-20.47-.7-.73-1.43-1.44-2.18-2.12-5.01-4.61-11.01-8.22-17.98-10.84-8.02-3.01-17.83-4.51-29.44-4.51h-30.38c-1.58,0-3.09.54-4.5,1.61-1.42,1.07-2.13,2.95-2.13,5.65v119.62c0,1.4.19,2.57.57,3.53.35.9.87,1.6,1.56,2.12,1.41,1.07,2.92,1.61,4.5,1.61h28.41c11.47,0,21.35-1.42,29.65-4.25,8.29-2.83,15.29-7.1,20.99-12.8,5.7-5.71,10.03-12.89,13.01-21.57,2.97-8.67,4.45-18.81,4.45-30.42,0-10.09-1.4-19.14-4.19-27.16ZM336.26,83.27c3.83,4.56,6.65,9.97,8.45,16.22,1.79,6.26,2.69,13.01,2.69,20.27,0,9.12-.98,17.01-2.95,23.68s-4.93,12.22-8.87,16.64c-3.93,4.42-8.84,7.71-14.72,9.85-5.87,2.14-13.09,3.21-21.66,3.21h-18.35v-104.39h18.14c9.26,0,16.83,1.28,22.7,3.84,4.14,1.8,7.77,4.1,10.9,6.9,1.31,1.17,2.53,2.43,3.67,3.78Z"/><path class="cls-9" d="M568.9,51.55c-.45-.48-1.29-.81-2.54-.98-1.24-.17-2.94-.26-5.08-.26s-3.73.05-4.97.15c-1.25.11-2.22.3-2.91.57-.69.28-1.17.66-1.45,1.14-.27.49-.52,1.11-.72,1.87l-36.5,109.89-.93,2.79h-.1l-38.46-112.89s-.01-.04-.02-.05c-.27-.67-.56-1.22-.86-1.66-.31-.45-.78-.81-1.4-1.09-.62-.27-1.5-.46-2.64-.57-1.14-.1-2.68-.15-4.61-.15-2.35,0-4.22.07-5.6.21-1.39.14-2.39.45-3.01.93-.62.48-.91,1.19-.88,2.12.03.94.33,2.16.88,3.68l43.85,124.6c.21.56.43,1.02.67,1.4.25.38.57.71.99.99.37.25.82.46,1.34.62.05.02.11.03.16.05.59.17,1.3.33,2.13.47.83.14,1.81.22,2.95.26,1.14.03,2.47.05,3.99.05,2.01,0,3.68-.05,5.03-.15,1.35-.11,2.45-.3,3.32-.58.86-.27,1.53-.65,2.02-1.14s.86-1.1,1.14-1.86l43.74-124.6c.56-1.52.89-2.75.99-3.68,0-.03.01-.07.01-.1.08-.89-.1-1.56-.53-2.03Z"/><path class="cls-10" d="M571.9,54.55c-.44-.47-1.26-.8-2.47-.97-.02,0-.05-.01-.07-.01-1.24-.17-2.94-.26-5.08-.26s-3.73.05-4.97.15c-1.25.11-2.22.3-2.91.57-.69.28-1.17.66-1.45,1.14-.27.49-.52,1.11-.72,1.87l-37.43,112.68h-.1l-1.97-5.79-36.49-107.1c-.27-.69-.57-1.26-.88-1.71-.31-.45-.78-.81-1.4-1.09-.21-.09-.46-.18-.74-.25-.52-.14-1.15-.25-1.9-.32-1.14-.1-2.68-.15-4.61-.15-2.35,0-4.22.07-5.6.21-1.39.14-2.39.45-3.01.93-.62.48-.91,1.19-.88,2.12.03.94.33,2.16.88,3.68l43.85,124.6h0c.21.57.43,1.02.67,1.4.25.38.57.71.99.99.41.28.91.5,1.5.67.59.17,1.3.33,2.13.47.83.14,1.81.22,2.95.26,1.14.03,2.47.05,3.99.05,2.01,0,3.68-.05,5.03-.15,1.35-.11,2.45-.3,3.32-.58.86-.27,1.53-.65,2.02-1.14s.86-1.1,1.14-1.86l43.74-124.6c.56-1.52.89-2.75.99-3.68.1-.94-.07-1.64-.52-2.13Z"/><path class="cls-9" d="M126.17,260.49c-.28-.41-.76-.74-1.45-.98-.7-.25-1.61-.45-2.75-.63-1.14-.17-2.58-.26-4.3-.26-1.59,0-2.96.09-4.1.26-1.14.18-2.07.38-2.8.63-.72.24-1.24.57-1.55.98-.31.41-.47.9-.47,1.45v128.75c0,.55.14,1.04.42,1.45.27.42.76.74,1.45.99.32.11.7.22,1.13.31.49.11,1.04.21,1.67.31,1.17.17,2.59.26,4.25.26s3.16-.09,4.3-.26c1.14-.18,2.05-.38,2.75-.62.69-.25,1.17-.57,1.45-.99.27-.41.41-.9.41-1.45v-128.75c0-.55-.14-1.04-.41-1.45Z"/><path class="cls-10" d="M129.17,263.49c-.28-.41-.76-.74-1.45-.98-.33-.12-.71-.23-1.14-.32-.47-.11-1.01-.22-1.61-.31-1.14-.17-2.58-.26-4.3-.26-1.59,0-2.96.09-4.1.26-1.14.18-2.07.38-2.8.63-.72.24-1.24.57-1.55.98-.31.41-.47.9-.47,1.45v128.75c0,.55.14,1.04.42,1.45.27.42.76.74,1.45.99.69.24,1.62.44,2.8.62,1.17.17,2.59.26,4.25.26s3.16-.09,4.3-.26c1.14-.18,2.05-.38,2.75-.62.69-.25,1.17-.57,1.45-.99.27-.41.41-.9.41-1.45v-128.75c0-.55-.14-1.04-.41-1.45Z"/><path class="cls-9" d="M350.21,341.92c-1.49-3.28-3.35-6.19-5.62-8.74-.42-.49-.87-.96-1.33-1.42-2.87-2.87-6.13-5.36-9.79-7.47-3.67-2.1-7.4-4.04-11.2-5.8-3.8-1.76-7.53-3.51-11.2-5.24-3.66-1.72-6.93-3.62-9.79-5.7-.68-.49-1.32-1-1.94-1.52-1.98-1.69-3.64-3.57-4.96-5.63-1.72-2.7-2.59-5.91-2.59-9.64,0-2.56.45-4.98,1.35-7.26.9-2.28,2.24-4.25,4.04-5.91,1.8-1.65,4.08-2.98,6.84-3.99,2.77-1,6.02-1.5,9.75-1.5,4.01,0,7.62.5,10.83,1.5,3.21,1.01,6,2.11,8.35,3.32,2.35,1.21,4.33,2.3,5.96,3.27,1.62.96,2.81,1.45,3.57,1.45.49,0,.92-.16,1.3-.47.38-.31.67-.79.88-1.45s.36-1.47.47-2.44c.1-.96.15-2.07.15-3.31,0-1.32-.03-2.39-.1-3.22-.07-.83-.17-1.53-.31-2.12-.11-.46-.24-.85-.39-1.18-.04-.09-.08-.18-.13-.27-.21-.38-.64-.9-1.3-1.56-.65-.65-2.02-1.52-4.09-2.59-2.07-1.07-4.44-2.04-7.1-2.9-2.66-.87-5.5-1.56-8.5-2.08-3.01-.51-6-.77-8.97-.77-5.8,0-11.21.77-16.22,2.33-5.01,1.55-9.33,3.82-12.96,6.79-3.63,2.97-6.46,6.65-8.5,11.04s-3.06,9.38-3.06,14.98.88,10.14,2.65,14.04c1.76,3.91,4.05,7.31,6.89,10.21.63.65,1.28,1.28,1.95,1.88h.01c2.33,2.14,4.89,4.03,7.68,5.69,3.59,2.15,7.29,4.1,11.09,5.86s7.52,3.49,11.14,5.18c3.63,1.7,6.86,3.56,9.7,5.6,1.87,1.35,3.5,2.84,4.89,4.48.71.83,1.36,1.71,1.95,2.62,1.73,2.7,2.59,5.95,2.59,9.75,0,3.52-.62,6.67-1.87,9.43-1.24,2.76-3.02,5.1-5.33,6.99-2.32,1.91-5.08,3.37-8.3,4.41-3.21,1.04-6.75,1.56-10.62,1.56-5.12,0-9.63-.61-13.53-1.82-3.91-1.21-7.24-2.5-10-3.89-2.77-1.38-5.03-2.66-6.79-3.83-1.77-1.18-3.13-1.76-4.1-1.76-.55,0-1.03.12-1.45.36-.41.24-.76.67-1.04,1.3-.27.62-.48,1.43-.62,2.43s-.2,2.27-.2,3.78c0,2.15.18,3.86.56,5.14s.97,2.33,1.77,3.16c.45.47,1.1,1,1.95,1.57.65.45,1.42.92,2.3,1.43,2.04,1.18,4.56,2.32,7.56,3.42,3.01,1.11,6.43,2.04,10.27,2.8,3.83.76,8,1.14,12.49,1.14,6.43,0,12.42-.86,17.98-2.59,5.57-1.72,10.4-4.3,14.52-7.72,4.11-3.42,7.32-7.58,9.64-12.49,2.31-4.91,3.47-10.51,3.47-16.79,0-5.33-.88-9.94-2.64-13.84Z"/><path class="cls-10" d="M353.21,344.92c-1.77-3.91-4.08-7.29-6.95-10.16-.54-.54-1.1-1.07-1.67-1.58-2.44-2.22-5.15-4.18-8.12-5.89-3.67-2.1-7.4-4.04-11.2-5.8-3.8-1.76-7.53-3.51-11.2-5.24-3.66-1.72-6.93-3.62-9.79-5.7-1.9-1.37-3.55-2.87-4.94-4.52-.72-.84-1.37-1.72-1.96-2.63-1.72-2.7-2.59-5.91-2.59-9.64,0-2.56.45-4.98,1.35-7.26.9-2.28,2.24-4.25,4.04-5.91,1.8-1.65,4.08-2.98,6.84-3.99,2.77-1,6.02-1.5,9.75-1.5,4.01,0,7.62.5,10.83,1.5,3.21,1.01,6,2.11,8.35,3.32,2.35,1.21,4.33,2.3,5.96,3.27,1.62.96,2.81,1.45,3.57,1.45.49,0,.92-.16,1.3-.47.38-.31.67-.79.88-1.45s.36-1.47.47-2.44c.1-.96.15-2.07.15-3.31,0-1.32-.03-2.39-.1-3.22-.07-.83-.17-1.53-.31-2.12-.14-.59-.31-1.07-.52-1.45-.21-.38-.64-.9-1.3-1.56-.33-.33-.86-.73-1.57-1.17-.67-.43-1.51-.9-2.52-1.42-2.07-1.07-4.44-2.04-7.1-2.9-2.66-.87-5.5-1.56-8.5-2.08-3.01-.51-6-.77-8.97-.77-5.8,0-11.21.77-16.22,2.33-5.01,1.55-9.33,3.82-12.96,6.79-3.63,2.97-6.46,6.65-8.5,11.04s-3.06,9.38-3.06,14.98.88,10.14,2.65,14.04c1.54,3.42,3.48,6.44,5.84,9.09h.01c.34.39.68.76,1.04,1.12,2.83,2.91,6.05,5.43,9.64,7.57,3.59,2.15,7.29,4.1,11.09,5.86s7.52,3.49,11.14,5.18c3.63,1.7,6.86,3.56,9.7,5.6.66.48,1.29.97,1.89,1.48,1.97,1.68,3.62,3.56,4.95,5.62,1.73,2.7,2.59,5.95,2.59,9.75,0,3.52-.62,6.67-1.87,9.43-1.24,2.76-3.02,5.1-5.33,6.99-2.32,1.91-5.08,3.37-8.3,4.41-3.21,1.04-6.75,1.56-10.62,1.56-5.12,0-9.63-.61-13.53-1.82-3.91-1.21-7.24-2.5-10-3.89-2.77-1.38-5.03-2.66-6.79-3.83-1.77-1.18-3.13-1.76-4.1-1.76-.55,0-1.03.12-1.45.36-.41.24-.76.67-1.04,1.3-.27.62-.48,1.43-.62,2.43s-.2,2.27-.2,3.78c0,2.15.18,3.86.56,5.14.19.63.43,1.21.72,1.73.29.53.65,1.01,1.05,1.43.79.83,2.21,1.83,4.25,3,2.04,1.18,4.56,2.32,7.56,3.42,3.01,1.11,6.43,2.04,10.27,2.8,3.83.76,8,1.14,12.49,1.14,6.43,0,12.42-.86,17.98-2.59,5.57-1.72,10.4-4.3,14.52-7.72,4.11-3.42,7.32-7.58,9.64-12.49,2.31-4.91,3.47-10.51,3.47-16.79,0-5.33-.88-9.94-2.64-13.84Z"/><path class="cls-9" d="M569.22,295.89c-2.38-8.4-6.01-15.45-10.88-21.15-.33-.38-.66-.76-1-1.13-4.7-5.15-10.46-9.1-17.3-11.88-7.32-2.97-15.93-4.45-25.81-4.45s-19.17,1.64-26.85,4.92c-7.67,3.28-14.06,7.95-19.17,13.99-5.12,6.05-8.95,13.4-11.51,22.03-2.56,8.64-3.84,18.25-3.84,28.82s1.18,20.84,3.53,29.34c2.35,8.5,5.92,15.62,10.73,21.35,1.3,1.56,2.7,3.02,4.2,4.38,4,3.63,8.68,6.55,14.04,8.73,7.36,3.01,16.09,4.51,26.18,4.51s19.17-1.64,26.85-4.92c7.67-3.28,14.04-7.98,19.12-14.1,5.08-6.11,8.9-13.53,11.46-22.23,2.55-8.71,3.83-18.49,3.83-29.34s-1.19-20.47-3.58-28.87ZM480.32,364.72c-3.1-4.8-5.31-10.52-6.62-17.15-1.31-6.64-1.97-13.89-1.97-21.77,0-7.12.71-13.91,2.12-20.37,1.42-6.46,3.77-12.11,7.04-16.95,3.28-4.84,7.54-8.71,12.79-11.61,5.24-2.9,11.73-4.35,19.46-4.35s14.22,1.34,19.47,4.04c3.84,1.97,7.11,4.51,9.82,7.61.99,1.14,1.91,2.35,2.75,3.64,3.15,4.8,5.39,10.47,6.73,17,1.35,6.53,2.02,13.59,2.02,21.19s-.69,14.14-2.07,20.63c-1.38,6.5-3.69,12.22-6.93,17.16-3.25,4.94-7.53,8.86-12.84,11.76-5.32,2.91-11.87,4.36-19.67,4.36s-14.41-1.33-19.62-3.99c-2.46-1.25-4.68-2.74-6.66-4.46-2.23-1.95-4.17-4.19-5.82-6.74Z"/><path class="cls-10" d="M572.22,298.89c-2.38-8.4-6.01-15.45-10.88-21.15-1.25-1.47-2.58-2.84-4-4.13-4.09-3.71-8.85-6.67-14.3-8.88-7.32-2.97-15.93-4.45-25.81-4.45s-19.17,1.64-26.85,4.92c-7.67,3.28-14.06,7.95-19.17,13.99-5.12,6.05-8.95,13.4-11.51,22.03-2.56,8.64-3.84,18.25-3.84,28.82s1.18,20.84,3.53,29.34c2.35,8.5,5.92,15.62,10.73,21.35.39.47.79.93,1.2,1.38,4.6,5.07,10.28,8.98,17.04,11.73,7.36,3.01,16.09,4.51,26.18,4.51s19.17-1.64,26.85-4.92c7.67-3.28,14.04-7.98,19.12-14.1,5.08-6.11,8.9-13.53,11.46-22.23,2.55-8.71,3.83-18.49,3.83-29.34s-1.19-20.47-3.58-28.87ZM548.18,290.81c3.15,4.8,5.39,10.47,6.73,17,1.35,6.53,2.02,13.59,2.02,21.19s-.69,14.14-2.07,20.63c-1.38,6.5-3.69,12.22-6.93,17.16-3.25,4.94-7.53,8.86-12.84,11.76-5.32,2.91-11.87,4.36-19.67,4.36s-14.41-1.33-19.62-3.99c-3.77-1.92-6.99-4.41-9.66-7.46-1.02-1.17-1.96-2.41-2.82-3.74-3.1-4.8-5.31-10.52-6.62-17.15-1.31-6.64-1.97-13.89-1.97-21.77,0-7.12.71-13.91,2.12-20.37,1.42-6.46,3.77-12.11,7.04-16.95,3.28-4.84,7.54-8.71,12.79-11.61,5.24-2.9,11.73-4.35,19.46-4.35s14.22,1.34,19.47,4.04c2.52,1.29,4.8,2.83,6.82,4.61,2.2,1.93,4.12,4.14,5.75,6.64Z"/><path class="cls-9" d="M161.98,591.99c-.27-1-.9-2.75-1.86-5.24l-12.03-29.54c-1.38-3.39-2.76-6.43-4.14-9.12-1.39-2.7-2.85-5.08-4.41-7.16-.52-.69-1.05-1.35-1.59-1.97-1.1-1.25-2.24-2.38-3.44-3.37-.51-.42-1.04-.82-1.59-1.2-1.37-.96-2.84-1.79-4.42-2.48,3.94-1.38,7.5-3.07,10.68-5.07,3.17-2.01,5.91-4.37,8.19-7.11,2.28-2.72,4.02-5.87,5.23-9.43,1.21-3.56,1.82-7.58,1.82-12.08s-.68-8.86-2.03-12.69c-1.26-3.62-3.14-6.85-5.62-9.7-.14-.17-.29-.34-.44-.51-2.69-2.97-6.03-5.43-10-7.36-3.98-1.94-8.56-3.36-13.74-4.25-1.8-.21-3.82-.4-6.06-.57-2.25-.18-5.07-.26-8.45-.26h-28.51c-1.59,0-3.09.53-4.51,1.6-1.42,1.08-2.12,2.96-2.12,5.65v124.19c0,.55.14,1.04.41,1.45.28.41.76.74,1.45.99.33.11.71.22,1.14.31.47.12,1.01.22,1.61.31,1.14.17,2.57.26,4.3.26s3.16-.09,4.3-.26c1.14-.18,2.04-.38,2.7-.62.66-.25,1.14-.58,1.45-.99.31-.41.47-.9.47-1.45v-57.12h11.92c4.08,0,7.57.61,10.47,1.82,2.9,1.2,5.42,2.9,7.57,5.08.48.48.94.99,1.38,1.51,1.57,1.83,2.95,3.92,4.16,6.26,1.56,3.01,3.06,6.31,4.51,9.9l12.34,31.62c.27.83.6,1.52.98,2.07.38.55.92.98,1.61,1.3.19.08.39.16.62.24.59.18,1.3.33,2.13.43,1.14.14,2.6.21,4.4.21,2.07,0,3.73-.07,4.98-.21,1.24-.14,2.21-.35,2.9-.62.69-.28,1.14-.63,1.35-1.04.2-.41.31-.9.31-1.45s-.14-1.33-.42-2.33ZM90.77,477.6h15.03c3.52,0,6.37.1,8.55.31,2.18.2,4.13.55,5.86,1.03,5.05,1.45,8.77,3.76,11.17,6.92.23.3.44.6.64.91,2.35,3.63,3.53,8.07,3.53,13.32,0,3.25-.54,6.26-1.61,9.02-1.07,2.76-2.74,5.17-5.03,7.2-2.28,2.04-5.13,3.63-8.55,4.77-3.42,1.14-7.48,1.71-12.18,1.71h-17.41v-45.19Z"/><path class="cls-10" d="M164.98,594.99c-.27-1-.9-2.75-1.86-5.24l-12.03-29.54c-1.38-3.39-2.76-6.43-4.14-9.12-1.39-2.7-2.85-5.08-4.41-7.16-1.43-1.9-2.96-3.56-4.59-4.97-.15-.12-.29-.25-.44-.37-1.8-1.48-3.8-2.71-6.01-3.68.48-.17.95-.34,1.42-.52,3.38-1.28,6.47-2.79,9.26-4.55,3.17-2.01,5.91-4.37,8.19-7.11,2.28-2.72,4.02-5.87,5.23-9.43,1.21-3.56,1.82-7.58,1.82-12.08s-.68-8.86-2.03-12.69c-1.34-3.84-3.37-7.24-6.06-10.21-.8-.88-1.65-1.71-2.56-2.49-2.16-1.89-4.65-3.51-7.44-4.87-3.98-1.94-8.56-3.36-13.74-4.25-1.8-.21-3.82-.4-6.06-.57-2.25-.18-5.07-.26-8.45-.26h-28.51c-1.59,0-3.09.53-4.51,1.6-1.42,1.08-2.12,2.96-2.12,5.65v124.19c0,.55.14,1.04.41,1.45.28.41.76.74,1.45.99.69.24,1.61.44,2.75.62,1.14.17,2.57.26,4.3.26s3.16-.09,4.3-.26c1.14-.18,2.04-.38,2.7-.62.66-.25,1.14-.58,1.45-.99.31-.41.47-.9.47-1.45v-57.12h11.92c4.08,0,7.57.61,10.47,1.82,2.2.91,4.18,2.11,5.95,3.59.56.47,1.1.96,1.62,1.49,2.14,2.17,3.99,4.76,5.54,7.77,1.56,3.01,3.06,6.31,4.51,9.9l12.34,31.62c.07.21.14.41.21.61.23.56.49,1.05.77,1.46.38.55.92.98,1.61,1.3.69.31,1.6.53,2.75.67,1.14.14,2.6.21,4.4.21,2.07,0,3.73-.07,4.98-.21,1.24-.14,2.21-.35,2.9-.62.69-.28,1.14-.63,1.35-1.04.2-.41.31-.9.31-1.45s-.14-1.33-.42-2.33ZM123.36,524.08c-3.42,1.14-7.48,1.71-12.18,1.71h-17.41v-45.19h15.03c3.52,0,6.37.1,8.55.31,2.18.2,4.13.55,5.86,1.03,3.29.95,6.01,2.25,8.17,3.92,1.47,1.14,2.69,2.44,3.64,3.91,2.35,3.63,3.53,8.07,3.53,13.32,0,3.25-.54,6.26-1.61,9.02-1.07,2.76-2.74,5.17-5.03,7.2-2.28,2.04-5.13,3.63-8.55,4.77Z"/><path class="cls-9" d="M359.28,463.81c-.56-.48-1.54-.81-2.96-.99-1.41-.17-3.36-.25-5.85-.25-1.8,0-3.29.06-4.46.2-1.18.14-2.09.33-2.75.57-.65.25-1.17.61-1.55,1.09-.38.48-.68,1.07-.88,1.76l-18.66,38.77c-1.73,3.8-3.43,7.66-5.11,11.56-1.44,3.32-2.83,6.65-4.18,10-.24.59-.48,1.18-.72,1.77h-.2c-1.79-4.08-3.54-8.12-5.26-12.13-1.72-4.01-3.44-7.84-5.16-11.51l-18.45-38.34-.11-.22c-.34-.69-.71-1.26-1.08-1.71-.39-.45-.96-.79-1.72-1.04-.76-.24-1.78-.43-3.05-.57-1.28-.14-2.96-.2-5.03-.2-2.28,0-4.09.06-5.44.2-1.35.14-2.28.45-2.8.93-.52.49-.69,1.18-.52,2.08.17.9.64,2.14,1.4,3.73l37.94,75.67v49.45c0,.55.14,1.04.41,1.45.28.42.77.74,1.5.99.32.11.68.21,1.09.3.5.11,1.06.22,1.69.32,1.13.17,2.56.26,4.28.26s3.05-.09,4.22-.26c1.17-.18,2.1-.38,2.78-.62.69-.25,1.17-.57,1.45-.99.27-.41.41-.9.41-1.45v-49.45l37.94-75.67c.76-1.51,1.22-2.72,1.4-3.62h0c.17-.9-.02-1.6-.57-2.08Z"/><path class="cls-10" d="M362.28,466.81c-.49-.42-1.29-.72-2.43-.92-.17-.02-.34-.05-.53-.07-1.41-.17-3.36-.25-5.85-.25-1.8,0-3.29.06-4.46.2-1.18.14-2.09.33-2.75.57-.65.25-1.17.61-1.55,1.09-.38.48-.68,1.07-.88,1.76l-18.66,38.77c-1.73,3.8-3.43,7.66-5.11,11.56-1.69,3.91-3.32,7.83-4.9,11.77h-.2c-.7-1.6-1.39-3.19-2.08-4.77-1.07-2.47-2.13-4.92-3.18-7.36-1.72-4.01-3.44-7.84-5.16-11.51l-18.56-38.56c-.34-.69-.71-1.26-1.08-1.71-.39-.45-.96-.79-1.72-1.04l-.09-.03c-.75-.22-1.74-.41-2.96-.54-1.28-.14-2.96-.2-5.03-.2-2.28,0-4.09.06-5.44.2-1.35.14-2.28.45-2.8.93-.52.49-.69,1.18-.52,2.08.17.9.64,2.14,1.4,3.73l37.94,75.67v49.45c0,.55.14,1.04.41,1.45.28.42.77.74,1.5.99.72.24,1.64.44,2.78.62,1.13.17,2.56.26,4.28.26s3.05-.09,4.22-.26c1.17-.18,2.1-.38,2.78-.62.69-.25,1.17-.57,1.45-.99.27-.41.41-.9.41-1.45v-49.45l37.94-75.67c.76-1.52,1.22-2.73,1.4-3.63.17-.89-.02-1.59-.57-2.07Z"/><path class="cls-10" d="M575.77,525.87c-.18-.95-.43-1.78-.76-2.5-.12-.26-.25-.51-.39-.74-.53-.86-1.11-1.48-1.73-1.87-.62-.38-1.32-.57-2.09-.57h-47.32v-52.36c0-.36-.04-.7-.13-1.02-.09-.38-.25-.74-.45-1.07-.38-.62-.98-1.15-1.79-1.58-.82-.44-1.9-.77-3.24-1.01-1.35-.24-3.02-.36-5.04-.36s-3.57.12-4.96.36c-1.39.24-2.49.57-3.31,1.01-.81.43-1.42.96-1.8,1.58-.38.62-.57,1.32-.57,2.09v52.36h-47.33c-.77,0-1.46.19-2.09.57-.62.39-1.17,1.01-1.65,1.87-.48.87-.86,1.95-1.15,3.24-.29,1.3-.43,2.8-.43,4.53,0,1.82.14,3.38.43,4.67.29,1.3.67,2.38,1.15,3.24s1.03,1.49,1.65,1.87c.31.19.64.33,1.01.43h0c.38.1.79.15,1.23.15h47.18v52.36c0,.77.19,1.41.57,1.94s.99.99,1.8,1.37c.21.09.43.19.67.27h.01c.72.26,1.59.48,2.63.67,1.39.23,3.04.35,4.96.35,2.02,0,3.69-.12,5.04-.35,1.34-.25,2.42-.56,3.24-.94.81-.38,1.41-.84,1.79-1.37s.58-1.17.58-1.94v-52.36h47.18c.77,0,1.49-.19,2.16-.58.67-.38,1.24-1.01,1.72-1.87s.87-1.94,1.16-3.24c.28-1.29.43-2.85.43-4.67s-.12-3.23-.36-4.53Z"/><path class="cls-9" d="M578.77,528.87c-.24-1.29-.63-2.37-1.15-3.24-.53-.86-1.11-1.48-1.73-1.87-.28-.17-.57-.3-.88-.39-.38-.12-.78-.18-1.21-.18h-47.32v-52.36c0-.77-.2-1.47-.58-2.09-.38-.62-.98-1.15-1.79-1.58-.23-.12-.49-.24-.76-.35-.69-.27-1.52-.49-2.48-.66-1.35-.24-3.02-.36-5.04-.36s-3.57.12-4.96.36c-1.39.24-2.49.57-3.31,1.01-.81.43-1.42.96-1.8,1.58-.38.62-.57,1.32-.57,2.09v52.36h-47.33c-.77,0-1.46.19-2.09.57-.62.39-1.17,1.01-1.65,1.87-.48.87-.86,1.95-1.15,3.24-.29,1.3-.43,2.8-.43,4.53,0,1.82.14,3.38.43,4.67.22.97.48,1.82.81,2.54h0c.11.26.22.49.34.7.48.86,1.03,1.49,1.65,1.87.63.39,1.37.58,2.24.58h47.18v52.36c0,.2.01.4.04.58h.01c.06.52.24.97.52,1.36.38.53.99.99,1.8,1.37.82.38,1.92.69,3.31.94,1.39.23,3.04.35,4.96.35,2.02,0,3.69-.12,5.04-.35,1.34-.25,2.42-.56,3.24-.94.81-.38,1.41-.84,1.79-1.37s.58-1.17.58-1.94v-52.36h47.18c.77,0,1.49-.19,2.16-.58.67-.38,1.24-1.01,1.72-1.87s.87-1.94,1.16-3.24c.28-1.29.43-2.85.43-4.67s-.12-3.23-.36-4.53Z"/><path class="cls-11" d="M1297.98,55.46c-.01-.44-.03-.89-.05-1.33-1.46-30.09-26.41-54.13-56.87-54.13H56.92C26.92,0,2.27,23.34.16,52.8c-.04.44-.07.89-.09,1.33-.02.44-.04.89-.05,1.33-.01.49-.02.98-.02,1.47v539.15c0,.49,0,.98.02,1.47.01.45.03.89.05,1.33.02.44.05.89.09,1.33,2.11,29.46,26.76,52.79,56.76,52.79h1184.14c30.46,0,55.41-24.03,56.87-54.12.02-.44.04-.88.05-1.33.01-.49.02-.98.02-1.47V56.93c0-.49-.01-.98-.02-1.47ZM56.92,645c-26.98,0-48.92-21.95-48.92-48.92V56.93c0-26.98,21.94-48.93,48.92-48.93h1184.14c26.99,0,48.94,21.95,48.94,48.93v539.15c0,26.97-21.95,48.92-48.94,48.92H56.92Z"/><path class="cls-11" d="M965.01,26.76c-17.17,0-31.13,13.96-31.13,31.13v191.46c0,17.17,13.96,31.14,31.13,31.14s31.13-13.97,31.13-31.14V57.89c0-17.17-13.96-31.13-31.13-31.13ZM978.64,249.35c0,7.53-6.1,13.64-13.63,13.64s-13.63-6.11-13.63-13.64V57.89c0-7.53,6.1-13.63,13.63-13.63s13.63,6.1,13.63,13.63v191.46Z"/></g></svg>